<mxfile host="app.diagrams.net" modified="2023-05-28T02:58:20.979Z" agent="Mozilla/5.0 (Windows NT 10.0; Win64; x64) AppleWebKit/537.36 (KHTML, like Gecko) Chrome/113.0.0.0 Safari/537.36" etag="6tEhEY5MH6BWwDab_cft" version="21.3.4" type="device">
  <diagram id="C5RBs43oDa-KdzZeNtuy" name="Page-1">
    <mxGraphModel dx="1500" dy="773" grid="1" gridSize="10" guides="1" tooltips="1" connect="1" arrows="1" fold="1" page="1" pageScale="1" pageWidth="827" pageHeight="1169" math="0" shadow="0">
      <root>
        <mxCell id="WIyWlLk6GJQsqaUBKTNV-0" />
        <mxCell id="WIyWlLk6GJQsqaUBKTNV-1" parent="WIyWlLk6GJQsqaUBKTNV-0" />
        <mxCell id="o6iEz9svOuSVI9pk4N0p-0" value="" style="edgeStyle=orthogonalEdgeStyle;rounded=0;orthogonalLoop=1;jettySize=auto;html=1;strokeWidth=0.5;fontFamily=宋体;" parent="WIyWlLk6GJQsqaUBKTNV-1" source="o6iEz9svOuSVI9pk4N0p-1" target="o6iEz9svOuSVI9pk4N0p-3" edge="1">
          <mxGeometry relative="1" as="geometry" />
        </mxCell>
        <mxCell id="o6iEz9svOuSVI9pk4N0p-1" value="开始" style="strokeWidth=0.5;html=1;shape=mxgraph.flowchart.terminator;whiteSpace=wrap;fontFamily=宋体;" parent="WIyWlLk6GJQsqaUBKTNV-1" vertex="1">
          <mxGeometry x="422.76" y="310" width="115" height="50" as="geometry" />
        </mxCell>
        <mxCell id="o6iEz9svOuSVI9pk4N0p-3" value="接收创建证据申请需要的数据" style="whiteSpace=wrap;html=1;strokeWidth=0.5;fontFamily=宋体;" parent="WIyWlLk6GJQsqaUBKTNV-1" vertex="1">
          <mxGeometry x="390.51" y="400" width="179.5" height="40" as="geometry" />
        </mxCell>
        <mxCell id="o6iEz9svOuSVI9pk4N0p-8" value="" style="edgeStyle=orthogonalEdgeStyle;rounded=0;orthogonalLoop=1;jettySize=auto;html=1;exitX=0.5;exitY=1;exitDx=0;exitDy=0;entryX=0.5;entryY=0;entryDx=0;entryDy=0;strokeWidth=0.5;fontFamily=宋体;" parent="WIyWlLk6GJQsqaUBKTNV-1" source="o6iEz9svOuSVI9pk4N0p-3" target="o6iEz9svOuSVI9pk4N0p-62" edge="1">
          <mxGeometry relative="1" as="geometry">
            <mxPoint x="480.25" y="440" as="sourcePoint" />
            <mxPoint x="480" y="470" as="targetPoint" />
          </mxGeometry>
        </mxCell>
        <mxCell id="o6iEz9svOuSVI9pk4N0p-20" value="" style="edgeStyle=orthogonalEdgeStyle;rounded=0;orthogonalLoop=1;jettySize=auto;html=1;entryX=0.5;entryY=0;entryDx=0;entryDy=0;exitX=0.5;exitY=1;exitDx=0;exitDy=0;strokeWidth=0.5;fontFamily=宋体;" parent="WIyWlLk6GJQsqaUBKTNV-1" source="o6iEz9svOuSVI9pk4N0p-62" target="o6iEz9svOuSVI9pk4N0p-34" edge="1">
          <mxGeometry relative="1" as="geometry">
            <mxPoint x="480.25999999999976" y="660" as="targetPoint" />
            <mxPoint x="480.75862068965534" y="640" as="sourcePoint" />
          </mxGeometry>
        </mxCell>
        <mxCell id="o6iEz9svOuSVI9pk4N0p-15" value="结束" style="strokeWidth=0.5;html=1;shape=mxgraph.flowchart.terminator;whiteSpace=wrap;fontFamily=宋体;" parent="WIyWlLk6GJQsqaUBKTNV-1" vertex="1">
          <mxGeometry x="419.62" y="770" width="120.25" height="42" as="geometry" />
        </mxCell>
        <mxCell id="o6iEz9svOuSVI9pk4N0p-16" value="N" style="text;html=1;align=center;verticalAlign=middle;resizable=0;points=[];autosize=1;strokeColor=none;fillColor=none;strokeWidth=0.5;fontFamily=宋体;" parent="WIyWlLk6GJQsqaUBKTNV-1" vertex="1">
          <mxGeometry x="489.48" y="730" width="30" height="30" as="geometry" />
        </mxCell>
        <mxCell id="o6iEz9svOuSVI9pk4N0p-70" style="edgeStyle=orthogonalEdgeStyle;rounded=0;orthogonalLoop=1;jettySize=auto;html=1;entryX=0;entryY=0.5;entryDx=0;entryDy=0;entryPerimeter=0;strokeWidth=0.5;fontFamily=宋体;" parent="WIyWlLk6GJQsqaUBKTNV-1" source="o6iEz9svOuSVI9pk4N0p-25" target="o6iEz9svOuSVI9pk4N0p-15" edge="1">
          <mxGeometry relative="1" as="geometry">
            <Array as="points">
              <mxPoint x="279.48" y="791" />
            </Array>
          </mxGeometry>
        </mxCell>
        <mxCell id="o6iEz9svOuSVI9pk4N0p-25" value="返回error" style="whiteSpace=wrap;html=1;strokeWidth=0.5;fontFamily=宋体;" parent="WIyWlLk6GJQsqaUBKTNV-1" vertex="1">
          <mxGeometry x="239.48" y="610" width="80" height="40" as="geometry" />
        </mxCell>
        <mxCell id="o6iEz9svOuSVI9pk4N0p-43" value="" style="edgeStyle=orthogonalEdgeStyle;rounded=0;orthogonalLoop=1;jettySize=auto;html=1;entryX=0.5;entryY=0;entryDx=0;entryDy=0;strokeWidth=0.5;fontFamily=宋体;" parent="WIyWlLk6GJQsqaUBKTNV-1" source="o6iEz9svOuSVI9pk4N0p-34" target="o6iEz9svOuSVI9pk4N0p-69" edge="1">
          <mxGeometry relative="1" as="geometry">
            <mxPoint x="479.51448275862083" y="670.0095785440612" as="targetPoint" />
          </mxGeometry>
        </mxCell>
        <mxCell id="o6iEz9svOuSVI9pk4N0p-34" value="在帐本中加入新证据申请" style="whiteSpace=wrap;html=1;strokeWidth=0.5;fontFamily=宋体;" parent="WIyWlLk6GJQsqaUBKTNV-1" vertex="1">
          <mxGeometry x="390.51" y="610" width="179.5" height="40" as="geometry" />
        </mxCell>
        <mxCell id="o6iEz9svOuSVI9pk4N0p-45" style="edgeStyle=orthogonalEdgeStyle;rounded=0;orthogonalLoop=1;jettySize=auto;html=1;entryX=0.5;entryY=0;entryDx=0;entryDy=0;exitX=0;exitY=0.5;exitDx=0;exitDy=0;strokeWidth=0.5;fontFamily=宋体;" parent="WIyWlLk6GJQsqaUBKTNV-1" source="o6iEz9svOuSVI9pk4N0p-62" target="o6iEz9svOuSVI9pk4N0p-25" edge="1">
          <mxGeometry relative="1" as="geometry">
            <mxPoint x="390.1241379310343" y="764.9655172413793" as="sourcePoint" />
          </mxGeometry>
        </mxCell>
        <mxCell id="o6iEz9svOuSVI9pk4N0p-46" style="edgeStyle=orthogonalEdgeStyle;rounded=0;orthogonalLoop=1;jettySize=auto;html=1;entryX=0.5;entryY=0;entryDx=0;entryDy=0;entryPerimeter=0;strokeWidth=0.5;fontFamily=宋体;" parent="WIyWlLk6GJQsqaUBKTNV-1" target="o6iEz9svOuSVI9pk4N0p-15" edge="1">
          <mxGeometry relative="1" as="geometry">
            <mxPoint x="479.51448275862083" y="719.9904214559385" as="sourcePoint" />
            <mxPoint x="479.75" y="760" as="targetPoint" />
          </mxGeometry>
        </mxCell>
        <mxCell id="o6iEz9svOuSVI9pk4N0p-62" value="申请的资源是否已申请过且未被处理&lt;br&gt;或申请的资源已有权限且未过期" style="rhombus;whiteSpace=wrap;html=1;strokeWidth=0.5;fontFamily=宋体;" parent="WIyWlLk6GJQsqaUBKTNV-1" vertex="1">
          <mxGeometry x="333.28999999999996" y="478" width="294.98" height="90" as="geometry" />
        </mxCell>
        <mxCell id="o6iEz9svOuSVI9pk4N0p-65" value="N" style="text;html=1;align=center;verticalAlign=middle;resizable=0;points=[];autosize=1;strokeColor=none;fillColor=none;strokeWidth=0.5;fontFamily=宋体;" parent="WIyWlLk6GJQsqaUBKTNV-1" vertex="1">
          <mxGeometry x="490" y="568" width="30" height="30" as="geometry" />
        </mxCell>
        <mxCell id="o6iEz9svOuSVI9pk4N0p-67" value="Y" style="text;html=1;align=center;verticalAlign=middle;resizable=0;points=[];autosize=1;strokeColor=none;fillColor=none;strokeWidth=0.5;fontFamily=宋体;" parent="WIyWlLk6GJQsqaUBKTNV-1" vertex="1">
          <mxGeometry x="295" y="478" width="30" height="30" as="geometry" />
        </mxCell>
        <mxCell id="o6iEz9svOuSVI9pk4N0p-69" value="处理区块链返回的结果并响应给前端" style="whiteSpace=wrap;html=1;strokeWidth=0.5;fontFamily=宋体;" parent="WIyWlLk6GJQsqaUBKTNV-1" vertex="1">
          <mxGeometry x="390.51" y="690" width="179.5" height="40" as="geometry" />
        </mxCell>
      </root>
    </mxGraphModel>
  </diagram>
</mxfile>
